<svg xmlns="http://www.w3.org/2000/svg" width="17" height="204"><svg width="17" height="17"><path fill="#1C1C1C" fill-rule="evenodd" d="M9.182 13v-2.455h2.454V9.182H9.182V6.727H7.818v2.455H5.364v1.363h2.454V13h1.364zm3.273-9.818V1H11.09v4.636h1.364v-1.09h2.181v10.09H2.364V4.546h1.09V3.181H1V16h15V3.182h-3.545zM5.909 4.545H10V3.182H5.91V1H4.544v4.636H5.91v-1.09z"/></svg><svg xmlns:xlink="http://www.w3.org/1999/xlink" width="17" height="17" y="17"><defs><path id="a" d="M9.193 16V9.158h2.358l.354-2.667H9.193V4.79c0-.772.22-1.298 1.358-1.298L12 3.49V1.104A20.18 20.18 0 0 0 9.888 1C7.796 1 6.365 2.243 6.365 4.524v1.967H4v2.667h2.365V16h2.828z"/></defs><use fill="#1C1C1C" xlink:href="#a"/></svg><svg width="17" height="17" y="34"><path fill="#1C1C1C" fill-rule="evenodd" d="M3.046 2.334h3.809l2.045 2h5.054c.377 0 .683.3.683.667H2.363v-2c0-.368.306-.667.683-.667m10.908 11.334H3.046A.676.676 0 0 1 2.363 13V6.334h12.274V13a.676.676 0 0 1-.683.667M3.046 15h10.908C15.082 15 16 14.104 16 13V5c0-1.103-.918-2-2.046-2h-4.49L7.419 1H3.046C1.918 1 1 1.897 1 3v10c0 1.103.918 2 2.046 2"/></svg><svg width="17" height="17" y="51"><path d="M14.5 4.375c0 .21-.165.375-.375.375h-1.5a.371.371 0 0 1-.375-.375v-1.5c0-.21.165-.375.375-.375h1.5c.21 0 .375.165.375.375v1.5zM2.875 14.5a.371.371 0 0 1-.375-.375V7.75h1.567C4.022 7.99 4 8.245 4 8.5 4 10.982 6.018 13 8.5 13S13 10.982 13 8.5c0-.255-.03-.51-.068-.75H14.5v6.375c0 .21-.165.375-.375.375H2.875zm5.625-9a3 3 0 1 1 0 6 3 3 0 1 1 0-6zm6-4.5h-12C1.667 1 1 1.667 1 2.5v12c0 .825.675 1.5 1.5 1.5h12c.825 0 1.5-.675 1.5-1.5v-12A1.5 1.5 0 0 0 14.5 1z"/></svg><svg width="17" height="17" y="68"><path fill="#1C1C1C" fill-rule="evenodd" d="M14.342 8.813C16.057 9.7 17 10.928 17 12.27s-.943 2.571-2.658 3.458C12.705 16.576 10.602 17 8.5 17c-2.102 0-4.204-.424-5.842-1.271C.944 14.842 0 13.614 0 12.27c0-1.343.944-2.57 2.658-3.457l.665 1.216c-1.212.627-1.906 1.443-1.906 2.242 0 .798.694 1.615 1.906 2.243 2.856 1.477 7.5 1.476 10.354 0 1.212-.628 1.906-1.445 1.906-2.243 0-.799-.694-1.615-1.906-2.242l.665-1.216zM8.5 11.318c1.392-1.648 3.824-4.855 3.824-6.41 0-2.03-1.715-3.68-3.824-3.68-2.11 0-3.824 1.65-3.824 3.68 0 1.557 2.432 4.763 3.824 6.41zM8.5 0c2.812 0 5.1 2.202 5.1 4.908 0 2.528-4.144 7.24-4.616 7.77l-.484.541-.484-.54C7.544 12.148 3.4 7.435 3.4 4.907 3.4 2.202 5.688 0 8.5 0zm-.012 6.118c.703 0 1.276-.55 1.276-1.228 0-.677-.573-1.228-1.276-1.228-.703 0-1.275.55-1.275 1.228 0 .678.572 1.228 1.275 1.228zm0-3.684c1.407 0 2.552 1.102 2.552 2.456 0 1.354-1.145 2.456-2.552 2.456-1.408 0-2.552-1.102-2.552-2.456 0-1.354 1.144-2.456 2.552-2.456z"/></svg><svg width="17" height="17" y="85"><path fill="#1C1C1C" fill-rule="evenodd" d="M14.342 8.813C16.057 9.7 17 10.928 17 12.27s-.943 2.571-2.658 3.458C12.705 16.576 10.602 17 8.5 17c-2.102 0-4.204-.424-5.842-1.271C.944 14.842 0 13.614 0 12.27c0-1.343.944-2.57 2.658-3.457l.665 1.216c-1.212.627-1.906 1.443-1.906 2.242 0 .798.694 1.615 1.906 2.243 2.856 1.477 7.5 1.476 10.354 0 1.212-.628 1.906-1.445 1.906-2.243 0-.799-.694-1.615-1.906-2.242l.665-1.216zM8.5 11.318c1.392-1.648 3.824-4.855 3.824-6.41 0-2.03-1.715-3.68-3.824-3.68-2.11 0-3.824 1.65-3.824 3.68 0 1.557 2.432 4.763 3.824 6.41zM8.5 0c2.812 0 5.1 2.202 5.1 4.908 0 2.528-4.144 7.24-4.616 7.77l-.484.541-.484-.54C7.544 12.148 3.4 7.435 3.4 4.907 3.4 2.202 5.688 0 8.5 0zm-.012 6.118c.703 0 1.276-.55 1.276-1.228 0-.677-.573-1.228-1.276-1.228-.703 0-1.275.55-1.275 1.228 0 .678.572 1.228 1.275 1.228zm0-3.684c1.407 0 2.552 1.102 2.552 2.456 0 1.354-1.145 2.456-2.552 2.456-1.408 0-2.552-1.102-2.552-2.456 0-1.354 1.144-2.456 2.552-2.456z"/></svg><svg xmlns:xlink="http://www.w3.org/1999/xlink" width="17" height="17" y="102"><defs><path id="b" d="M14.278-.576l-1.145-1.146-4.355 4.354-1.146 1.146-4.354 4.355 1.146 1.145 4.354-4.354 1.146-1.146z"/></defs><g fill="#1C1C1C" fill-rule="evenodd"><path d="M13.746 9.588v-1.62H1.81v1.62h7.778zm-3 5v-1.62H1.81v1.62h7.778z"/><use transform="rotate(45 8.778 3.778)" xlink:href="#b"/></g></svg><svg width="17" height="17" y="119"><path fill="#1C1C1C" fill-rule="evenodd" d="M1 9.75V1h15v8.75H1zM2.25 8.5h12.5V2.25H2.25V8.5zM2.875 6V4.75h2.5V6h-2.5zm8.75 0V4.75h2.5V6h-2.5zM8.5 6.625c.689 0 1.25-.561 1.25-1.25s-.561-1.25-1.25-1.25-1.25.561-1.25 1.25.561 1.25 1.25 1.25zm0-3.75c1.379 0 2.5 1.122 2.5 2.5s-1.121 2.5-2.5 2.5a2.503 2.503 0 0 1-2.5-2.5c0-1.378 1.121-2.5 2.5-2.5zM1 12.5v-1.25h15v1.25H1zm0 2.875v-1.25h15v1.25H1z"/></svg><svg width="17" height="17" y="136"><path fill="#1C1C1C" fill-rule="evenodd" d="M14.637 14.273h-.683V7.455H12.59v5.81l-5.454-2.181V6.553L12.59 4.37v1.72h1.363V3.364h.683v10.909zm-9.767 0l-.818-2.045H5.09v2.045h-.22zM2.364 7.455c0-.376.305-.682.682-.682h2.727v.682H3.046v1.363h2.727v2.046H3.046a.682.682 0 0 1-.682-.682V7.455zM12.59 2.902L6.324 5.409H3.046A2.049 2.049 0 0 0 1 7.455v2.727c0 .959.666 1.76 1.558 1.98l1.39 3.475h2.506V12.28l6.137 2.454v.903H16V2h-3.41v.902z"/></svg><svg width="17" height="17" y="153"><path fill="#1C1C1C" fill-rule="evenodd" d="M3.869 10.47c-2.91-2.908-.875-7.96 3.3-7.96a4.662 4.662 0 0 1 4.665 4.663c0 4.107-5.01 6.252-7.965 3.298zm8.156.496a6.15 6.15 0 0 0-.495-8.153C7.63-1.084 1 1.731 1 7.173c0 5.158 5.954 7.998 9.963 4.855L14.938 16 16 14.939l-3.975-3.973z"/></svg><svg xmlns:xlink="http://www.w3.org/1999/xlink" width="17" height="17" y="170"><defs><path id="c" d="M16 4.42a6.219 6.219 0 0 1-1.767.477 3.052 3.052 0 0 0 1.353-1.675 6.242 6.242 0 0 1-1.956.735A3.09 3.09 0 0 0 11.385 3c-1.7 0-3.078 1.357-3.078 3.03 0 .237.028.469.08.69a8.781 8.781 0 0 1-6.342-3.166 2.973 2.973 0 0 0-.416 1.523c0 1.052.544 1.98 1.368 2.522a3.113 3.113 0 0 1-1.393-.38v.038c0 1.467 1.06 2.692 2.468 2.971a3.136 3.136 0 0 1-1.391.05 3.073 3.073 0 0 0 2.874 2.105 6.234 6.234 0 0 1-3.821 1.295c-.248 0-.493-.015-.734-.041A8.795 8.795 0 0 0 5.717 15c5.66 0 8.754-4.618 8.754-8.622l-.01-.393A6.095 6.095 0 0 0 16 4.42z"/></defs><use fill="#010002" xlink:href="#c"/></svg><svg width="17" height="17" y="187"><path fill="#1C1C1C" fill-rule="evenodd" d="M2.5 14.5h12a3.755 3.755 0 0 0-3.75-3.75h-4.5A3.755 3.755 0 0 0 2.5 14.5zm13.5 0V16H1v-1.5a5.256 5.256 0 0 1 5.25-5.25h4.5A5.256 5.256 0 0 1 16 14.5zM6.25 4.75A2.252 2.252 0 0 0 8.5 7c1.24 0 2.25-1.009 2.25-2.25S9.74 2.5 8.5 2.5a2.252 2.252 0 0 0-2.25 2.25zm6 0A3.755 3.755 0 0 1 8.5 8.5a3.755 3.755 0 0 1-3.75-3.75A3.755 3.755 0 0 1 8.5 1a3.755 3.755 0 0 1 3.75 3.75z"/></svg></svg>