<svg xmlns="http://www.w3.org/2000/svg" width="17" height="17" viewBox="0 0 17 17">
    <path fill="#000" fill-rule="nonzero" d="M14.5 4.375c0 .21-.165.375-.375.375h-1.5a.371.371 0 0 1-.375-.375v-1.5c0-.21.165-.375.375-.375h1.5c.21 0 .375.165.375.375v1.5zM2.875 14.5a.371.371 0 0 1-.375-.375V7.75h1.567C4.022 7.99 4 8.245 4 8.5 4 10.982 6.018 13 8.5 13S13 10.982 13 8.5c0-.255-.03-.51-.068-.75H14.5v6.375c0 .21-.165.375-.375.375H2.875zm5.625-9a3 3 0 1 1 0 6 3 3 0 1 1 0-6zm6-4.5h-12C1.667 1 1 1.667 1 2.5v12c0 .825.675 1.5 1.5 1.5h12c.825 0 1.5-.675 1.5-1.5v-12A1.5 1.5 0 0 0 14.5 1z"/>
</svg>
