<svg xmlns="http://www.w3.org/2000/svg" width="17" height="17" viewBox="0 0 17 17">
    <path fill="#1C1C1C" fill-rule="evenodd" d="M14.342 8.813C16.057 9.7 17 10.928 17 12.27s-.943 2.571-2.658 3.458C12.705 16.576 10.602 17 8.5 17c-2.102 0-4.204-.424-5.842-1.271C.944 14.842 0 13.614 0 12.27 0 10.927.944 9.7 2.658 8.813l.665 1.216c-1.212.627-1.906 1.443-1.906 2.242 0 .798.694 1.615 1.906 2.243 2.856 1.477 7.5 1.476 10.354 0 1.212-.628 1.906-1.445 1.906-2.243 0-.799-.694-1.615-1.906-2.242l.665-1.216zM8.5 11.318c1.392-1.648 3.824-4.855 3.824-6.41 0-2.03-1.715-3.68-3.824-3.68-2.11 0-3.824 1.65-3.824 3.68 0 1.557 2.432 4.763 3.824 6.41zM8.5 0c2.812 0 5.1 2.202 5.1 4.908 0 2.528-4.144 7.24-4.616 7.77l-.484.541-.484-.54C7.544 12.148 3.4 7.435 3.4 4.907 3.4 2.202 5.688 0 8.5 0zm-.012 6.118c.703 0 1.276-.55 1.276-1.228 0-.677-.573-1.228-1.276-1.228-.703 0-1.275.55-1.275 1.228 0 .678.572 1.228 1.275 1.228zm0-3.684c1.407 0 2.552 1.102 2.552 2.456 0 1.354-1.145 2.456-2.552 2.456-1.408 0-2.552-1.102-2.552-2.456 0-1.354 1.144-2.456 2.552-2.456z"/>
</svg>
