<svg xmlns="http://www.w3.org/2000/svg" width="17" height="17" viewBox="0 0 17 17">
    <path fill="#1C1C1C" fill-rule="evenodd" d="M14.637 14.273h-.683V7.455H12.59v5.81l-5.454-2.181V6.553L12.59 4.37v1.72h1.363V3.364h.683v10.909zm-9.767 0l-.818-2.045H5.09v2.045H4.87zM2.364 7.455c0-.376.305-.682.682-.682h2.727v.682H3.046v1.363h2.727v2.046H3.046a.682.682 0 0 1-.682-.682V7.455zM12.59 2.902L6.324 5.409H3.046A2.049 2.049 0 0 0 1 7.455v2.727c0 .959.666 1.76 1.558 1.98l1.39 3.475h2.506V12.28l6.137 2.454v.903H16V2h-3.41v.902z"/>
</svg>
