<svg xmlns="http://www.w3.org/2000/svg" xmlns:xlink="http://www.w3.org/1999/xlink" width="17" height="17" viewBox="0 0 17 17">
    <defs>
        <path id="a" d="M16 4.42a6.219 6.219 0 0 1-1.767.477 3.052 3.052 0 0 0 1.353-1.675c-.596.347-1.254.599-1.956.735A3.09 3.09 0 0 0 11.385 3c-1.7 0-3.078 1.357-3.078 3.03 0 .237.028.469.08.69a8.781 8.781 0 0 1-6.342-3.166 2.973 2.973 0 0 0-.416 1.523c0 1.052.544 1.98 1.368 2.522a3.113 3.113 0 0 1-1.393-.38v.038c0 1.467 1.06 2.692 2.468 2.971-.258.069-.53.106-.811.106-.199 0-.391-.019-.58-.056a3.073 3.073 0 0 0 2.874 2.105 6.234 6.234 0 0 1-3.821 1.295c-.248 0-.493-.015-.734-.041A8.795 8.795 0 0 0 5.717 15c5.66 0 8.754-4.618 8.754-8.622l-.01-.393A6.095 6.095 0 0 0 16 4.42z"/>
    </defs>
    <use fill="#010002" fill-rule="nonzero" xlink:href="#a"/>
</svg>
