<svg xmlns="http://www.w3.org/2000/svg" width="17" height="17" viewBox="0 0 17 17">
    <path fill="#1C1C1C" fill-rule="evenodd" d="M2.5 14.5h12a3.755 3.755 0 0 0-3.75-3.75h-4.5A3.755 3.755 0 0 0 2.5 14.5zm13.5 0V16H1v-1.5a5.256 5.256 0 0 1 5.25-5.25h4.5A5.256 5.256 0 0 1 16 14.5zM6.25 4.75A2.252 2.252 0 0 0 8.5 7c1.24 0 2.25-1.009 2.25-2.25S9.74 2.5 8.5 2.5a2.252 2.252 0 0 0-2.25 2.25zm6 0A3.755 3.755 0 0 1 8.5 8.5a3.755 3.755 0 0 1-3.75-3.75A3.755 3.755 0 0 1 8.5 1a3.755 3.755 0 0 1 3.75 3.75z"/>
</svg>
